<svg width="501" height="156" viewBox="0 0 501 156" fill="none" xmlns="http://www.w3.org/2000/svg">
<rect width="500.36" height="155.068" rx="10" fill="black"/>
<rect x="2.5" y="2.5" width="495.36" height="150.068" rx="7.5" stroke="#E7E7E7" stroke-opacity="0.8" stroke-width="5"/>
<path d="M29 77.746H38.54V107.85C38.54 109.051 38.752 109.864 39.176 110.288C39.6 110.712 40.448 110.924 41.72 110.924H45.642C46.8433 110.924 47.6207 110.712 47.974 110.288C48.398 109.864 48.61 109.051 48.61 107.85V97.674H58.256V109.122C58.256 112.161 57.4787 114.422 55.924 115.906C54.44 117.39 51.9667 118.132 48.504 118.132H38.752C35.2893 118.132 32.7807 117.39 31.226 115.906C29.742 114.422 29 112.161 29 109.122V77.746ZM48.61 51.564C52.0727 51.564 54.546 52.3413 56.03 53.896C57.5847 55.4507 58.362 57.7473 58.362 60.786V81.35C58.362 84.4593 57.4787 86.756 55.712 88.24C54.016 89.724 51.366 90.466 47.762 90.466H36.42V83.046H45.43C46.8433 83.046 47.762 82.834 48.186 82.41C48.61 81.9153 48.822 80.9967 48.822 79.654V62.058C48.822 60.786 48.61 59.9733 48.186 59.62C47.8327 59.196 47.02 58.984 45.748 58.984H41.72C40.5893 58.984 39.812 59.196 39.388 59.62C38.964 59.9733 38.752 60.786 38.752 62.058V70.22H29.212V60.786C29.212 57.7473 29.954 55.4507 31.438 53.896C32.9927 52.3413 35.5013 51.564 38.964 51.564H48.61ZM66.842 51.776H84.014V59.196H76.382V118.132H66.842V51.776Z" fill="white"/>
<path d="M86.9688 77.746H96.5088V107.85C96.5088 109.051 96.7208 109.864 97.1448 110.288C97.5688 110.712 98.4168 110.924 99.6888 110.924H103.611C104.812 110.924 105.589 110.712 105.943 110.288C106.367 109.864 106.579 109.051 106.579 107.85V97.674H116.225V109.122C116.225 112.161 115.447 114.422 113.893 115.906C112.409 117.39 109.935 118.132 106.473 118.132H96.7207C93.2581 118.132 90.7494 117.39 89.1948 115.906C87.7108 114.422 86.9688 112.161 86.9688 109.122V77.746ZM106.579 51.564C110.041 51.564 112.515 52.3413 113.999 53.896C115.553 55.4507 116.331 57.7473 116.331 60.786V81.35C116.331 84.4593 115.447 86.756 113.681 88.24C111.985 89.724 109.335 90.466 105.731 90.466H94.3887V83.046H103.399C104.812 83.046 105.731 82.834 106.155 82.41C106.579 81.9153 106.791 80.9967 106.791 79.654V62.058C106.791 60.786 106.579 59.9733 106.155 59.62C105.801 59.196 104.989 58.984 103.717 58.984H99.6888C98.5581 58.984 97.7808 59.196 97.3568 59.62C96.9327 59.9733 96.7207 60.786 96.7207 62.058V70.22H87.1808V60.786C87.1808 57.7473 87.9227 55.4507 89.4067 53.896C90.9614 52.3413 93.4701 51.564 96.9327 51.564H106.579ZM124.811 51.776H141.983V59.196H134.351V118.132H124.811V51.776Z" fill="white"/>
<path d="M145.467 57.076H154.901V118.132H145.467V57.076ZM137.836 51.776H162.534V59.196H137.836V51.776Z" fill="white"/>
<path d="M145.607 31H154.511V41.07H145.607V31Z" fill="white"/>
<path d="M184.827 55.38H194.367V118.132H184.827V55.38ZM180.481 67.04V74.248H177.407C176.205 74.248 175.393 74.46 174.969 74.884C174.545 75.2373 174.333 76.05 174.333 77.322V99.264C174.333 100.536 174.545 101.384 174.969 101.808C175.393 102.232 176.205 102.444 177.407 102.444H181.435C182.707 102.444 183.59 102.197 184.085 101.702C184.579 101.207 184.827 100.324 184.827 99.052L185.993 104.352C185.993 106.401 185.604 107.85 184.827 108.698C184.12 109.475 182.813 109.864 180.905 109.864H174.333C171.153 109.864 168.75 109.122 167.125 107.638C165.57 106.083 164.793 103.681 164.793 100.43V76.05C164.793 72.9407 165.535 70.6793 167.019 69.266C168.573 67.782 171.082 67.04 174.545 67.04H180.481ZM204.861 67.04C208.041 67.04 210.408 67.8173 211.963 69.372C213.588 70.856 214.401 73.2233 214.401 76.474V100.854C214.401 103.893 213.623 106.154 212.069 107.638C210.585 109.122 208.111 109.864 204.649 109.864H198.607V102.656H201.681C202.953 102.656 203.801 102.444 204.225 102.02C204.649 101.596 204.861 100.783 204.861 99.582V77.64C204.861 76.2973 204.649 75.4493 204.225 75.096C203.801 74.672 202.953 74.46 201.681 74.46H197.759C196.487 74.46 195.603 74.7073 195.109 75.202C194.614 75.626 194.367 76.5093 194.367 77.852L193.095 72.552C193.095 70.5027 193.483 69.0893 194.261 68.312C195.038 67.464 196.345 67.04 198.183 67.04H204.861ZM158.433 51.776H220.761V59.196H158.433V51.776Z" fill="white"/>
<path d="M277.087 51.776H286.627V118.132H277.087V51.776ZM256.947 80.926H282.069V88.24H261.293L256.947 80.926ZM282.069 51.776H294.153V59.196H282.069V51.776ZM256.947 51.67C260.41 51.67 262.883 52.4473 264.367 54.002C265.922 55.5567 266.699 57.8533 266.699 60.892V75.626C266.699 77.2513 266.346 78.488 265.639 79.336C264.933 80.1133 263.908 80.608 262.565 80.82V81.032C263.908 81.1733 264.933 81.668 265.639 82.516C266.346 83.2933 266.699 84.4947 266.699 86.12V100.642C266.699 103.681 265.922 105.977 264.367 107.532C262.883 109.087 260.41 109.864 256.947 109.864H247.301C243.839 109.864 241.33 109.087 239.775 107.532C238.291 105.977 237.549 103.681 237.549 100.642V90.784H247.195V99.37C247.195 100.571 247.407 101.384 247.831 101.808C248.255 102.232 249.068 102.444 250.269 102.444H254.085C255.357 102.444 256.17 102.232 256.523 101.808C256.947 101.384 257.159 100.571 257.159 99.37V88.028C257.159 86.756 256.912 85.908 256.417 85.484C255.923 84.9893 255.039 84.742 253.767 84.742H247.407V77.216H253.767C255.039 77.216 255.923 76.9687 256.417 76.474C256.912 75.9793 257.159 75.096 257.159 73.824V62.164C257.159 60.892 256.947 60.0793 256.523 59.726C256.17 59.302 255.357 59.09 254.085 59.09H250.269C249.068 59.09 248.255 59.302 247.831 59.726C247.407 60.0793 247.195 60.892 247.195 62.164V70.538H237.549V60.892C237.549 57.8533 238.291 55.5567 239.775 54.002C241.33 52.4473 243.839 51.67 247.301 51.67H256.947Z" fill="white"/>
<path d="M289.897 51.776H353.179V59.196H289.897V51.776ZM315.973 56.016H325.513V92.798C325.513 96.0487 324.701 98.4513 323.075 100.006C321.45 101.49 318.871 102.232 315.337 102.232H305.797C302.193 102.232 299.579 101.49 297.953 100.006C296.399 98.4513 295.621 96.0487 295.621 92.798V76.156C295.621 73.0467 296.469 70.75 298.165 69.266C299.861 67.782 302.547 67.04 306.221 67.04H318.517V74.46H308.447C307.105 74.46 306.221 74.672 305.797 75.096C305.373 75.4493 305.161 76.3327 305.161 77.746V91.632C305.161 92.904 305.373 93.752 305.797 94.176C306.221 94.6 307.069 94.812 308.341 94.812H312.793C314.065 94.812 314.913 94.6 315.337 94.176C315.761 93.752 315.973 92.904 315.973 91.632V56.016ZM336.007 55.274H345.547V118.132H336.007V103.822L317.351 124.068H306.751L336.007 92.48V55.274Z" fill="white"/>
<path d="M348.901 51.776H393.103V59.196H348.901V51.776ZM375.931 55.274H385.577V118.132H375.931V55.274ZM371.691 67.04V74.46H368.617C367.416 74.46 366.603 74.672 366.179 75.096C365.755 75.4493 365.543 76.262 365.543 77.534V99.264C365.543 100.536 365.755 101.384 366.179 101.808C366.603 102.232 367.416 102.444 368.617 102.444H372.645C373.917 102.444 374.765 102.197 375.189 101.702C375.684 101.207 375.931 100.324 375.931 99.052L377.203 104.352C377.203 106.401 376.815 107.85 376.037 108.698C375.331 109.475 374.023 109.864 372.115 109.864H365.437C362.257 109.864 359.855 109.122 358.229 107.638C356.675 106.083 355.897 103.681 355.897 100.43V76.05C355.897 72.9407 356.639 70.6793 358.123 69.266C359.678 67.782 362.187 67.04 365.649 67.04H371.691Z" fill="white"/>
<path d="M396.596 57.076H406.03V118.132H396.596V57.076ZM388.964 51.776H413.662V59.196H388.964V51.776Z" fill="white"/>
<path d="M409.562 51.776H471.36V59.196H409.562V51.776ZM435.32 67.04C436.945 67.04 438.182 67.4287 439.03 68.206C439.948 68.9127 440.443 69.902 440.514 71.174H440.832C440.973 69.902 441.432 68.9127 442.21 68.206C443.058 67.4287 444.294 67.04 445.92 67.04H457.686V74.46H448.464C447.192 74.46 446.344 74.672 445.92 75.096C445.496 75.52 445.284 76.368 445.284 77.64V98.522H435.744V77.64C435.744 76.368 435.532 75.52 435.108 75.096C434.754 74.672 433.942 74.46 432.67 74.46H429.278C428.076 74.46 427.264 74.672 426.84 75.096C426.416 75.4493 426.204 76.2973 426.204 77.64V107.426C426.204 108.627 426.416 109.44 426.84 109.864C427.264 110.217 428.076 110.394 429.278 110.394H435.532V118.132H426.416C422.953 118.132 420.444 117.39 418.89 115.906C417.406 114.422 416.664 112.161 416.664 109.122V76.474C416.664 73.2233 417.441 70.856 418.996 69.372C420.621 67.8173 423.024 67.04 426.204 67.04H435.32ZM464.258 118.132H454.718V56.334H464.258V118.132Z" fill="white"/>
</svg>
